<svg xmlns="http://www.w3.org/2000/svg" viewBox="0 0 48 48" width="48" height="48" fill="none">
  <defs>
    <linearGradient id="auraGrad" x1="0" y1="0" x2="48" y2="48" gradientUnits="userSpaceOnUse">
      <stop offset="0%" stop-color="#FF6B35"/>
      <stop offset="100%" stop-color="#06B6D4"/>
    </linearGradient>
    <linearGradient id="chipGrad" x1="0" y1="0" x2="24" y2="24" gradientUnits="userSpaceOnUse">
      <stop offset="0%" stop-color="#FFFFFF"/>
      <stop offset="100%" stop-color="#E2E8F0"/>
    </linearGradient>
  </defs>
  <rect x="2" y="2" width="44" height="44" rx="12" fill="#0F172A" stroke="url(#auraGrad)" stroke-width="2.5"/>
  <path d="M16 12 H28 L34 18 V34 C34 35.1 33.1 36 32 36 H16 C14.9 36 14 35.1 14 34 V14 C14 12.9 14.9 12 16 12 Z" fill="url(#chipGrad)" />
  <rect x="18" y="20" width="12" height="12" rx="2" fill="none" stroke="#FF6B35" stroke-width="1.5" />
  <line x1="24" y1="20" x2="24" y2="32" stroke="#FF6B35" stroke-width="1.5" />
  <line x1="18" y1="26" x2="30" y2="26" stroke="#FF6B35" stroke-width="1.5" />
  <circle cx="37" cy="11" r="2.5" fill="#06B6D4" />
  <circle cx="41" cy="7" r="1.5" fill="#FF6B35" />
</svg>
